<?xml version="1.0" standalone="no"?>
<!DOCTYPE svg PUBLIC "-//W3C//DTD SVG 20010904//EN"
 "http://www.w3.org/TR/2001/REC-SVG-20010904/DTD/svg10.dtd">
<svg version="1.0" xmlns="http://www.w3.org/2000/svg"
 width="512.000000pt" height="512.000000pt" viewBox="0 0 512.000000 512.000000"
 preserveAspectRatio="xMidYMid meet">
<metadata>
Created by potrace 1.13, written by Peter Selinger 2001-2015
</metadata>
<g transform="translate(0.000000,512.000000) scale(0.100000,-0.100000)"
fill="#000000" stroke="none">
<path d="M3876 5109 c-86 -21 -134 -73 -161 -174 -13 -53 -15 -330 -15 -2497
l0 -2438 45 0 45 0 0 2485 0 2485 465 0 465 0 0 -2485 0 -2485 55 0 55 0 0
2448 0 2449 -31 61 c-32 64 -79 110 -146 139 -33 16 -82 18 -388 20 -194 1
-367 -2 -389 -8z"/>
<path d="M2147 3398 c-45 -12 -95 -59 -123 -114 -19 -38 -19 -80 -22 -1661
l-2 -1623 35 0 35 0 0 1635 0 1635 485 0 485 0 0 -1635 0 -1635 40 0 40 0 0
1598 0 1597 -24 50 c-12 28 -43 69 -69 92 -76 70 -99 73 -496 72 -199 -1 -362
-5 -384 -11z"/>
</g>
</svg>
